<?xml version="1.0" encoding="UTF-8" standalone="no"?>
<!-- Created with Inkscape (http://www.inkscape.org/) -->

<svg
   version="1.1"
   id="svg1"
   width="634.66669"
   height="610.66669"
   viewBox="0 0 634.66669 610.66669"
   sodipodi:docname="217b.svg"
   inkscape:version="1.3.2 (091e20ef0f, 2023-11-25)"
   xmlns:inkscape="http://www.inkscape.org/namespaces/inkscape"
   xmlns:sodipodi="http://sodipodi.sourceforge.net/DTD/sodipodi-0.dtd"
   xmlns="http://www.w3.org/2000/svg"
   xmlns:svg="http://www.w3.org/2000/svg">
  <defs
     id="defs1" />
  <sodipodi:namedview
     id="namedview1"
     pagecolor="#ffffff"
     bordercolor="#000000"
     borderopacity="0.25"
     inkscape:showpageshadow="2"
     inkscape:pageopacity="0.0"
     inkscape:pagecheckerboard="0"
     inkscape:deskcolor="#d1d1d1"
     showgrid="false"
     inkscape:zoom="0.5775"
     inkscape:cx="327.27273"
     inkscape:cy="35.497835"
     inkscape:window-width="1920"
     inkscape:window-height="1011"
     inkscape:window-x="0"
     inkscape:window-y="0"
     inkscape:window-maximized="1"
     inkscape:current-layer="layer1" />
  <g
     inkscape:groupmode="layer"
     id="layer1"
     inkscape:label="Layer 1">
    <path
       id="path2"
       style="fill:#ff0000"
       d="M 159.63281 396.5957 L 146.91211 400.70703 L 108.28516 420.69336 L 71.449219 446.27539 L 47.316406 473.16406 L 30.248047 511.29492 L 13.511719 565.16211 L 1.3574219 606.56836 L 86.619141 606.47852 L 360.20312 607.01367 C 360.20312 607.01367 416.45149 484.9304 416.78125 483.37695 C 417.111 481.8235 430.91396 460.68328 432.34375 460.35352 C 433.77355 460.02377 437.29077 432.21025 437.74805 430.28711 C 438.20532 428.36398 433.76758 396.94141 433.76758 396.94141 L 429.21289 398.49609 L 408.48828 420.02539 L 385.66016 432.81055 C 385.66016 432.81055 356.94301 441.4043 355.17188 441.4043 C 353.40074 441.4043 317.96484 444.56641 317.96484 444.56641 L 278.66602 441.56641 L 248.64062 431.66406 L 221.14844 409.04492 L 208.33984 397.67773 L 191.36719 401.63477 L 175.49805 403.70703 L 164.0293 398.90039 L 159.63281 396.5957 z M 605.50391 514.40234 L 603.80859 514.9707 L 571.8418 608.0918 L 632.06641 608.01562 C 632.06641 608.01562 633.38467 598.56511 632.83594 596.94727 C 632.28721 595.32941 605.50391 514.40234 605.50391 514.40234 z " />
    <path
       style="fill:#0000ff"
       d="m 361.24808,605.72075 212.82272,0.56547 32.33393,-116.48173 -40.40002,-38.34035 -12.98278,-17.63668 -19.6049,-12.46883 -10.0794,-1.79948 -17.3752,-14.52592 -26.51299,-14.85954 -36.16217,15.99178 -5.63158,21.81658 -2.86602,31.80194 -6.88619,2.09574 z"
       id="path3" />
    <path
       id="path4"
       style="fill:#ffccaa"
       d="M 327.21484 64.644531 L 307.18164 66.787109 L 260.25195 100.39453 L 248.14844 134.99414 L 242.57227 183.69336 L 240.56445 210.52344 L 230.51367 221.27539 L 232.29492 235.54102 L 240.53125 233.41016 L 247.78516 233.55273 L 267.67578 262.77148 L 271.64844 265.82617 C 271.64844 265.82617 285.50503 257.0982 286.10352 256.75781 C 286.70201 256.41742 305.08008 245.42578 305.08008 245.42578 L 311.46875 242.12109 L 324.77539 240.11133 L 333.47852 240.74805 L 339.875 242.71484 L 344.70312 246.06836 L 360.83398 256.02344 L 372.89844 262.78711 C 372.89844 262.78711 378.87459 264.93959 379.02148 264.49023 C 379.16837 264.04088 392.78428 240.6859 393.04688 240.2793 C 393.30947 239.87269 403.95313 231.79687 403.95312 231.79688 L 408.375 236.47266 C 408.375 236.47266 415.50757 237.25195 415.74414 236.35742 C 415.98071 235.4629 414.14063 212.26367 414.14062 212.26367 C 414.14062 212.26367 410.26037 205.46704 410.48633 204.92383 C 410.71229 204.38062 406.37109 188.22266 406.37109 188.22266 L 398.82031 144.82812 L 393.29492 114.88086 C 393.29492 114.88086 386.39515 102.2264 384.96094 100.50195 C 383.52674 98.777507 366.90234 87.726563 366.90234 87.726562 L 344.61523 77.238281 L 333.05273 69.216797 L 331.12109 68.166016 L 327.21484 64.644531 z M 292.76562 166.17383 C 292.76563 166.17383 299.07012 171.98932 298.91602 172.51172 C 298.76192 173.03413 291.87858 180.60367 291.4668 180.88086 C 291.05501 181.15804 287.45508 181.75195 287.45508 181.75195 L 285.90625 181.24805 L 288.29688 173.39062 L 285.38672 166.30469 L 292.76562 166.17383 z M 368.46289 166.24805 L 372.16016 166.37305 L 376.90039 168.66602 C 376.90039 168.66602 382.79274 174.28024 382.71094 174.63672 C 382.6291 174.99319 379.1348 179.00004 378.68945 179.39648 C 378.2441 179.79291 368.51953 183.15039 368.51953 183.15039 L 365.93945 182.74219 L 371.16406 173.7793 L 368.46289 166.24805 z M 355.6875 166.375 C 355.6875 166.375 356.68945 174.54768 356.68945 175.12891 C 356.68945 175.71013 358.5 181.8457 358.5 181.8457 L 354.38867 181.71875 L 348.83398 178.81641 C 348.83398 178.81641 343.45316 176.33294 342.90039 175.93555 C 342.34761 175.53815 345.33984 173.16602 345.33984 173.16602 L 355.6875 166.375 z M 274.98047 166.80469 C 274.98047 166.80469 272.93183 172.14122 273.73438 172.6875 C 274.5369 173.23379 278.26367 179.99805 278.26367 179.99805 L 278.56641 183.72461 L 272.52734 182.22266 C 272.52734 182.22266 266.5181 178.79064 266.17188 178.62695 C 265.82563 178.46326 263.38672 175.66016 263.38672 175.66016 L 263.79883 172.00195 L 274.98047 166.80469 z M 320.82812 244.17188 L 314.56055 251.95508 L 309.47461 258.05664 L 296.47852 266.12891 L 298.86133 270.0332 L 308.57422 274.87891 L 322.32227 275.87695 C 322.32227 275.87695 335.13089 275.11942 336.23828 274.68945 C 337.34568 274.25948 343.06055 270.98437 343.06055 270.98438 L 346.0293 267.62891 L 333.56055 255.91992 L 322.38477 244.21484 L 320.82812 244.17188 z M 246.05664 305.68164 L 242.67969 360.96289 L 212.99023 392.10547 L 222.22266 410.74414 L 247.90234 431.67383 L 269.94141 440.34961 L 306.86914 443.42969 L 334.67188 444.69727 L 365.16992 440.95508 L 385.61523 434.36523 L 408.77734 420.10352 L 423.3457 402.86914 L 422.36719 394.14844 L 397.70703 374.09766 L 398.13867 308.75195 L 387.20703 311.7168 L 364.13672 338.74023 L 341.73242 356.13086 L 321.87695 348.50977 L 311.18945 356.38867 L 296.29492 353.36914 L 272.91797 332.16211 L 254.20508 309.61133 L 246.05664 305.68164 z " />
    <path
       id="path5"
       style="display:inline;fill:#00ffff"
       d="m 292.76562,166.17383 -7.3789,0.13086 2.91016,7.08593 -2.39063,7.85743 1.54883,0.5039 c 0,0 3.59993,-0.59391 4.01172,-0.87109 0.41178,-0.27719 7.29512,-7.84673 7.44922,-8.36914 0.1541,-0.5224 -6.15039,-6.33789 -6.1504,-6.33789 z m 75.69727,0.0742 2.70117,7.53125 -5.22461,8.96289 2.58008,0.4082 c 0,0 9.72457,-3.35748 10.16992,-3.75391 0.44535,-0.39644 3.93965,-4.40329 4.02149,-4.75976 0.0818,-0.35648 -5.81055,-5.9707 -5.81055,-5.9707 l -4.74023,-2.29297 z m -12.77539,0.12695 -10.34766,6.79102 c 0,0 -2.99223,2.37213 -2.43945,2.76953 0.55277,0.39739 5.93359,2.88086 5.93359,2.88086 l 5.55469,2.90234 4.11133,0.12695 c 0,0 -1.81055,-6.13557 -1.81055,-6.71679 0,-0.58123 -1.00195,-8.75391 -1.00195,-8.75391 z m -80.70703,0.42969 -11.18164,5.19726 -0.41211,3.65821 c 0,0 2.43891,2.8031 2.78516,2.96679 0.34623,0.16369 6.35546,3.59571 6.35546,3.59571 l 6.03907,1.50195 -0.30274,-3.72656 c 0,0 -3.72676,-6.76426 -4.52929,-7.31055 -0.80255,-0.54628 1.24609,-5.88281 1.24609,-5.88281 z" />
    <path
       id="path6"
       style="display:inline;fill:#803300"
       d="M 347.36523,15.642578 304.87305,15.669922 257.83203,30.3125 226.0625,69.505859 c 0,0 14.70481,1.398438 16.44531,1.398438 1.74049,0 41.6543,-3.097656 41.6543,-3.097656 l 14.13867,-9.199219 c 0,0 7.38671,-8.231286 8.34766,-8.447266 0.96094,-0.21598 17.04297,-13.552734 17.04297,-13.552734 l 43.72265,31.30664 c 0,0 53.39188,6.024381 54.58399,6.402344 L 408.54883,51.660156 391.13281,34.167969 c 0,0 -20.30018,-11.750817 -21.44336,-11.966797 -1.14317,-0.21598 -22.32422,-6.558594 -22.32422,-6.558594 z m -108.22656,71.839844 -5.55664,2.314453 -4.52344,5.773437 4.08203,2.089844 c 0,0 9.0819,-2.943456 9.53711,-3.503906 0.4552,-0.56045 1.78303,-5.712123 1.51758,-6.027344 -0.26545,-0.315221 -5.05664,-0.646484 -5.05664,-0.646484 z M 257.5,103.81445 l -11.22656,2.19141 -10.90625,3.42383 -9.07227,3.42187 -15.35742,2.19141 -1.96094,10.39648 -13.1289,51.94727 -9.35743,55.62109 11.80079,54.63477 c 0,0 -1.58001,32.6726 -2.14063,33.80469 -0.56062,1.13206 -16.48897,29.49323 -16.94922,30.4707 -0.46025,0.97747 -15.77734,20.45703 -15.77734,20.45703 0,0 -12.91203,16.1496 -13.375,18.41016 -0.46296,2.26053 16.81228,8.77474 18.20117,9.86523 1.38889,1.0905 30.07031,-3.26562 30.07031,-3.26562 0,0 28.37138,-15.84469 29.9375,-16.07618 1.56612,-0.23148 19.14649,-73.54297 19.14649,-73.54297 l 23.63281,23.72266 32.87695,25.26758 18.61719,-5.11524 8.52734,4.71485 c 0,0 22.19868,-8.85641 23.88868,-9.08789 1.68996,-0.23148 33.13476,-33.87695 33.13476,-33.87696 h 9.19141 l 1.84375,54.17579 42.3164,36.95898 29.81055,-10.89062 0.80859,-40.03907 -15.99609,-24.07812 -6.47266,-27.76172 10.24219,-37.4375 c 0,0 3.68212,-43.80542 2.55274,-43.13086 -1.12938,0.67455 -9.50782,-46.40039 -9.50782,-46.40039 l -10.4707,-28.03125 -6.24805,-27.59375 -16.31054,-9.24219 c 0,0 -22.19329,-4.2275 -23.29102,-4.45898 -1.09773,-0.23148 -2.36133,8.45117 -2.36133,8.45117 l 10.70508,70.21875 16.59766,34.75976 -9.06641,21.34376 -12.79883,-13.18165 c 0,0 -14.59794,32.74122 -16.50586,36.1836 -1.90788,3.44235 -10.38086,0.0976 -10.38086,0.0976 l -20.91992,-12.63867 -11.61328,-7.98828 -6.64648,-2.02148 -6.09571,0.21875 -5.29101,3.54297 c 0,0 10.27693,10.13729 9.75976,10.77343 -0.51718,0.63614 -4.06634,3.95174 -4.875,4.23438 -0.80867,0.28263 -16.82812,-2.77149 -16.82812,-2.77149 l 9.67187,-13.48828 -3.52929,-3.5664 -13.06836,7.04297 -15.39844,8.66015 -14.33984,11.23242 -8.50196,-0.33203 c 0,0 -14.02922,-33.34266 -15.07031,-32.48633 -1.04109,0.85633 -12.28505,7.09081 -13.79687,8.49805 -1.51186,1.40725 -11.53516,-14.95312 -11.53516,-14.95312 l 11.45703,-16.23438 7.53906,-50.70508 z m 62.01562,158.11328 17.18555,1.59766 11.91602,3.98828 c 0,0 -10.90969,6.32252 -11.83008,6.79102 -0.9204,0.46849 -11.34101,2.24609 -12.27734,2.24609 -0.93635,0 -19.6836,-2.66406 -19.6836,-2.66406 l -8.72656,-7.30469 c 0,0 7.47668,-2.43405 8.94727,-3.04297 1.47056,-0.60891 14.46874,-1.61133 14.46874,-1.61133 z" />
    <path
       style="fill:#008000"
       d="m 366.97052,85.087228 c 2.69753,0.90637 24.45039,15.149322 24.45039,15.149322 0,0 24.23692,9.16962 26.76298,9.16962 2.52606,0 28.89501,5.10236 28.89501,5.10236 0,0 7.30772,-2.50679 7.30772,-3.06321 0,-0.55641 -4.40074,-24.791241 -4.43033,-25.295008 -0.0296,-0.503767 -13.84326,-2.948963 -13.84326,-2.948963 l -35.92814,-10.989273 -38.3169,-5.551413 -39.29346,-29.316886 -36.15559,29.933174 -48.73049,5.169804 c 0,0 -27.62803,9.459735 -28.13248,9.459735 -0.50446,0 -12.3478,5.235871 -12.3478,5.235871 l -1.83097,6.99699 -1.35439,15.827019 c 0,0 1.60868,3.27001 2.00681,3.27001 0.39813,0 23.0549,-0.76873 24.69834,-0.85682 1.64343,-0.0881 27.50931,-7.06822 28.09807,-7.62911 0.58876,-0.56088 31.47373,-18.679282 32.25587,-19.15552 0.78215,-0.476239 21.92349,-15.193179 21.92349,-15.193179 l 9.72745,-4.510846 c 0,0 17.31973,0.884688 17.73541,0.972779 0.41568,0.08809 10.33135,8.144229 11.11177,8.440846 0.78043,0.296617 13.85187,5.144684 15.28231,5.764413 1.43043,0.61973 10.26011,4.386281 10.26011,4.386281 l 0.24294,-0.262551 z"
       id="path7" />
    <path
       style="fill:#000000"
       d="m 0,603.98455 c 0,-6.60654 14.216715,-61.22241 22.9027,-87.98453 16.301352,-50.2256 46.375713,-82.05787 104.67408,-110.7925 l 18.91011,-9.32059 2.90675,-8.73479 c 3.054,-9.17727 8.28089,-16.29434 14.79119,-20.14007 3.01009,-1.7781 4.47242,-4.25445 6.48807,-10.9871 1.83284,-6.12202 4.77273,-11.45095 9.94408,-18.02496 11.46304,-14.5722 13.11141,-18.32747 13.75373,-31.33333 0.47857,-9.69 -0.15736,-14.33001 -4.38569,-32 -8.53193,-35.65457 -7.965,-61.2377 2.05639,-92.79706 2.87834,-9.06445 6.73765,-24.74331 8.57625,-34.84189 1.83861,-10.09858 3.95179,-20.4571 4.69597,-23.01892 1.91399,-6.58892 1.87024,-6.67547 -3.37423,-6.67547 -3.2413,0 -5.75602,-1.02875 -8,-3.27273 -3.84644,-3.84644 -3.89393,-4.2482 -1.25014,-10.57567 1.13358,-2.71304 1.6561,-6.300918 1.18879,-8.162831 -2.06283,-8.218952 4.6076,-15.307266 14.4141,-15.317122 4.85939,-0.0049 5.16282,-0.317866 15.13335,-15.609592 11.08215,-16.996617 23.45199,-30.236116 35.83357,-38.352826 17.02744,-11.162295 40.36011,-17.1185963 55.94632,-14.281827 5.37126,0.977597 9.93682,1.053718 13.46129,0.224436 18.28089,-4.3013579 43.94188,3.187754 65.58622,19.141216 9.26309,6.827575 21.15316,20.521215 27.38615,31.540275 2.28148,4.033333 5.94774,9.883333 8.14725,13 3.90356,5.531286 4.17989,5.666667 11.56642,5.666667 10.04186,0 11.98063,2.113397 11.98063,13.059752 0,4.900522 0.89576,10.061552 2.23304,12.865852 2.11637,4.43807 2.10462,4.82464 -0.22494,7.39878 -1.35189,1.49382 -4.77006,3.08576 -7.59593,3.53763 -2.82587,0.45188 -5.36035,1.19278 -5.63218,1.64646 -0.97192,1.62207 7.21876,34.91023 11.09775,45.10296 5.20029,13.66464 7.72101,22.7311 10.13154,36.44073 4.91787,27.9699 3.87426,48.38813 -3.6601,71.60981 -3.81632,11.76228 -4.21087,14.53328 -4.12984,29.0047 0.10196,18.21187 1.41521,22.65819 9.58935,32.46714 9.67447,11.60934 11.31178,16.29232 12.12715,34.6856 l 0.73083,16.48607 8.10239,2.92912 c 11.28982,4.08142 16.2435,7.43081 23.60209,15.9584 5.68309,6.58591 7.41104,7.69233 16,10.24495 5.29587,1.57392 11.76019,3.94592 14.36516,5.27111 7.6059,3.86923 17.87233,13.91417 29.28946,28.65756 5.85084,7.55541 14.91617,17.53877 20.14518,22.18525 21.10816,18.75661 19.82905,17.00279 19.82905,27.18828 0,7.32986 1.25153,12.75483 6.5726,28.49019 10.67614,31.57123 18.76074,63.75913 18.76074,74.69376 v 9.40925 H 317.33334 0 Z m 124.15776,-49.6512 c 0.0868,-26.58333 0.56498,-50.13333 1.0627,-52.33333 0.92066,-4.0694 2.77178,40.98485 2.78902,67.88165 0.005,8.13176 0.39198,18.83502 0.85948,23.78502 l 0.84999,9 h 11.15628 11.15629 l -0.71006,-5 c -1.86833,-13.15615 -5.95585,-50.71139 -5.8411,-53.66667 0.0712,-1.83334 2.14015,10.46667 4.5977,27.33333 2.45754,16.86667 4.49533,30.81667 4.52843,31 0.0331,0.18334 6.51885,0.33334 14.41278,0.33334 h 14.3526 l 3.20838,-20.66124 c 1.76461,-11.36369 3.46517,-20.40446 3.77902,-20.09062 0.54228,0.54229 -2.95378,29.32073 -4.50518,37.08519 l -0.73263,3.66667 h 9.43927 9.43928 v -99.38025 c 0,-98.96708 -0.0111,-99.37432 -2.66667,-97.95309 -1.46667,0.78493 -2.69981,2.15604 -2.74033,3.04691 -0.0405,0.89086 -0.88221,7.61975 -1.87043,14.95309 l -1.79678,13.33333 0.20377,-14.66667 c 0.15986,-11.50626 -0.17462,-14.58842 -1.55224,-14.30355 -0.96581,0.19971 -5.277,0.73113 -9.58043,1.18093 -6.96291,0.72777 -8.77892,0.35747 -16.49331,-3.36311 -4.76789,-2.29952 -9.57792,-4.18093 -10.68896,-4.18093 -3.66718,0 -49.70092,23.81787 -62.225948,32.19572 -34.274579,22.92589 -54.394161,52.74594 -68.523591,101.56157 -6.354488,21.95407 -18.0650907,65.16195 -18.0650907,66.65365 0,0.50732 26.1000007,0.9224 58.0000017,0.9224 H 124 Z m 66.76884,2.33334 c 0.0272,-2.2 0.326,-2.93859 0.66406,-1.6413 0.33806,1.29729 0.31583,3.09729 -0.0494,4 -0.36524,0.90271 -0.64183,-0.1587 -0.61466,-2.3587 z m 124.75369,43 c -11.02988,-16.88463 -39.19569,-71.56138 -47.43038,-92.074 -2.7068,-6.74264 -8.50956,-22.51572 -12.89503,-35.05129 l -7.97358,-22.79195 -7.72708,-4.28051 c -4.2499,-2.35427 -12.53473,-8.52386 -18.41074,-13.71018 -5.876,-5.18633 -10.98152,-9.13181 -11.34559,-8.76774 -0.36407,0.36407 -1.03762,40.94003 -1.49677,90.16881 l -0.83483,89.50686 h 55.03687 55.03688 z m -78.13642,-34.33334 c 0,-1.83333 0.30263,-2.58333 0.67251,-1.66666 0.36988,0.91666 0.36988,2.41666 0,3.33333 -0.36988,0.91667 -0.67251,0.16667 -0.67251,-1.66667 z m -4.6078,-21.39705 c -1.95297,-9.86496 -6.56253,-35.01903 -10.24346,-55.89794 -6.0159,-34.12326 -7.56214,-44.71273 -5.94361,-40.70501 1.14558,2.8366 20.59636,111.96395 20.17936,113.21495 -0.24278,0.72835 -2.03931,-6.74705 -3.99229,-16.612 z m 132.14504,44.61032 c 4.10258,-8.24914 6.69178,-15.04032 6.22724,-16.33334 -0.43733,-1.21729 -7.77539,-7.91326 -16.30679,-14.87993 -20.99638,-17.14544 -62.28683,-58.30077 -70.89869,-70.66667 -3.83031,-5.5 -9.39046,-14.65615 -12.35589,-20.347 -3.93355,-7.54874 -6.26785,-10.56691 -8.63142,-11.16013 -1.78186,-0.44722 -3.57567,-0.4772 -3.98624,-0.0666 -0.41058,0.41058 -1.99578,-0.41736 -3.52266,-1.83987 -3.32124,-3.09421 -4.93999,-3.29309 -4.93999,-0.60695 0,3.08673 12.98671,38.51596 19.55192,53.33987 11.10709,25.07926 34.82599,68.42299 48.71098,89.01404 l 5.1698,7.66667 h 16.97968 16.97968 z m 39.33046,-23.12601 c 9.99239,-20.48534 19.41937,-40.96076 20.94884,-45.50094 2.97954,-8.84462 6.17359,-48.88554 4.06921,-51.01203 -0.59456,-0.6008 -3.92276,5.6992 -7.39601,14 -8.92318,21.32575 -41.20717,92.8322 -48.18792,106.7324 -3.21512,6.40202 -5.84568,11.95202 -5.84568,12.33334 0,0.38132 4.10481,0.69331 9.1218,0.69331 h 9.12179 z m 11.46953,24.91274 c 4.33655,-13.04176 11.14746,-49.57785 10.50143,-56.33333 -0.31168,-3.25931 -1.96608,-0.42001 -8.93438,15.33333 -4.70353,10.63334 -12.05353,26.76633 -16.33334,35.85111 -4.2798,9.08477 -7.78146,16.73477 -7.78146,17 0,0.26522 4.15052,0.48223 9.22338,0.48223 h 9.22338 z m 1.45225,10.33334 c 0,-1.1 -0.23581,-2 -0.52402,-2 -0.28821,0 -0.86938,0.9 -1.29149,2 -0.4221,1.1 -0.1863,2 0.52402,2 0.71032,0 1.29149,-0.9 1.29149,-2 z m 25.8684,-10.33334 c 8.43328,-43.60214 14.1316,-83.33656 14.1316,-98.53969 0,-4.92395 -0.87336,-13.04187 -1.94081,-18.03981 -2.91936,-13.66891 -11.33591,-43.56389 -12.62888,-44.85685 -1.40543,-1.40544 -2.34714,8.9474 -4.16325,45.76968 -2.04749,41.5136 -7.54838,92.80234 -13.04915,121.66667 l -1.20697,6.33334 h 8.23601 8.236 z m 19.97145,10 c 0.37742,-1.28333 1.69557,-10.43333 2.92923,-20.33333 2.42866,-19.48981 2.05002,-34.53877 -1.50965,-60 -1.84353,-13.18623 -4.22432,-24.00504 -4.47816,-20.34966 -1.10277,15.88037 -13.79307,99.00537 -15.54824,101.84529 -0.39806,0.64407 3.47123,1.17104 8.59843,1.17104 7.72795,0 9.43952,-0.39904 10.00839,-2.33334 z m 7.32562,-10.66666 -0.16787,-13 -1.74845,10 c -2.34113,13.3897 -2.3274,16 0.0842,16 1.65251,0 1.97084,-2.25873 1.83214,-13 z m 28.90526,1.33333 c -0.38047,-6.41667 -1.03351,-20.06667 -1.45121,-30.33333 -2.11535,-51.99318 -16.24264,-120.24491 -30.87444,-149.16049 l -3.28598,-6.49381 -8.22144,0.93015 c -4.5218,0.51158 -8.48187,1.19057 -8.80017,1.50887 -0.31829,0.31829 3.13708,13.02194 7.6786,28.23033 4.54152,15.20838 9.74226,34.85161 11.5572,43.65161 6.63125,32.15261 13.07581,79.24474 14.82541,108.33334 l 0.90221,15 h 9.18079 9.18078 z m 30.13182,-4.66667 c 0.63506,-51.20945 -2.033,-80.76839 -10.22695,-113.30261 -4.02485,-15.98075 -7.28848,-23.05727 -15.9235,-34.52687 -8.37428,-11.12327 -27.47278,-32.19429 -28.36856,-31.29851 -0.36634,0.36634 1.45509,5.94501 4.04762,12.39703 15.76781,39.24127 26.26884,105.45922 26.26884,165.64748 v 17.41682 h 12 12 z m 47.60212,-4.66666 c 15.05362,-47.62459 22.862,-76.57993 22.862,-84.77776 0,-4.11557 -1.15928,-5.58854 -11,-13.97648 -6.05,-5.15684 -14.56677,-13.60499 -18.92616,-18.77365 -4.35938,-5.16867 -8.10049,-9.22325 -8.31357,-9.01017 -0.21308,0.21308 0.50287,5.44631 1.591,11.6294 2.15761,12.26022 2.46791,18.90184 0.43179,9.24199 -0.69557,-3.3 -3.06395,-11.89881 -5.26304,-19.10845 -3.20986,-10.52339 -5.06934,-14.27032 -9.42909,-19.00009 -5.19934,-5.64063 -20.7834,-14.68867 -23.59348,-13.69828 -0.73889,0.26041 2.26746,5.27348 6.68078,11.14015 21.22775,28.21823 28.07298,50.84552 27.61967,91.29836 l -0.2021,18.03497 -0.96442,-16 c -2.47059,-40.98829 -14.04241,-70.87785 -37.94094,-98 -4.20012,-4.76667 -11.28778,-12.80157 -15.75035,-17.85535 -6.08992,-6.89671 -10.20176,-10.16577 -16.48468,-13.1059 -14.66571,-6.86291 -13.98078,-4.68556 5.54521,17.62792 15.10325,17.25935 19.17325,22.86493 24.68611,34 13.07384,26.40696 16.52303,48.92391 16.59471,108.33339 l 0.0519,43.00006 17.5834,-5e-5 17.58339,-6e-5 z m 50.862,19.57496 c 0,-5.19139 -18.60745,-69.41306 -21.9723,-75.83511 -1.68187,-3.20997 -1.90768,-2.84769 -5.37391,8.62136 -1.99005,6.58466 -7.67913,24.72212 -12.6424,40.30545 l -9.02412,28.33334 h 24.50636 c 16.50007,0 24.50637,-0.46557 24.50637,-1.42504 z M 382.04081,550.27148 c 3.22942,-6.81737 6.76448,-16.26737 7.85571,-21 2.00352,-8.6893 4.76797,-48.64736 4.76939,-68.93813 7.5e-4,-10.76623 -0.0682,-11 -3.24576,-11 -1.7856,0 -4.9356,0.65114 -7,1.44698 -8.06552,3.1093 -27.34557,6.5177 -44.71266,7.90447 -17.40297,1.38964 -51.54067,0.23333 -63.37415,-2.1466 -2.67238,-0.53747 -4.33333,-0.33939 -4.33333,0.51678 0,4.32326 32.59344,45.6117 36.00626,45.6117 0.78718,0 0.77955,-1.26649 -0.0203,-3.37028 -0.70475,-1.85365 -2.51939,-8.30365 -4.03252,-14.33333 -1.51312,-6.02968 -3.06096,-12.16305 -3.43963,-13.62972 -0.55994,-2.16878 -0.42723,-2.29325 0.71081,-0.66667 0.76961,1.1 4.13471,10.17811 7.47799,20.17357 5.1737,15.46788 6.90709,19.04102 11.64279,24 l 5.56408,5.82643 1.02578,-9.33333 c 0.56418,-5.13333 1.48455,-15.33333 2.04527,-22.66667 0.99934,-13.06992 1.03265,-12.82941 1.68615,12.17449 l 0.66666,25.50782 15.33334,13.24199 c 13.27398,11.46352 27.75666,22.93762 29.08457,23.04265 0.22984,0.0182 3.06015,-5.54479 6.28956,-12.36215 z m 23.73014,-52.30857 c 11.11582,-25.84602 14.03487,-35.5702 15.72819,-52.39512 1.41818,-14.09105 1.07063,-16.45039 -2.08989,-14.18728 -0.98791,0.70739 -6.32006,4.28617 -11.84923,7.95284 l -10.05304,6.66666 -0.0868,30.14724 c -0.0478,16.58099 -0.47134,33.08099 -0.94132,36.66667 -0.46997,3.58569 -0.50328,6.20273 -0.074,5.81566 0.42927,-0.38707 4.64402,-9.68707 9.36611,-20.66667 z m -44.63837,-44.75359 c 28.28843,-4.75319 42.66568,-11.65357 57.69371,-27.69016 9.29714,-9.92108 12.0557,-15.17051 9.37877,-17.84744 -1.06629,-1.06628 -4.29635,1.4446 -11.83842,9.20254 -22.38397,23.02467 -51.08942,30.83629 -108.216,29.44886 -23.86476,-0.5796 -29.19388,-1.11705 -40.46889,-4.08135 -19.24871,-5.06064 -30.16074,-11.27668 -44.19526,-25.17584 -6.51576,-6.45292 -12.06576,-11.73258 -12.33333,-11.73258 -1.23644,0 -0.28507,7.23436 1.51926,11.55274 2.8894,6.9153 17.64104,20.56402 28.25253,26.1402 5.01524,2.63543 13.42474,5.98499 18.68779,7.44345 25.13893,6.96635 69.27584,8.15742 101.51984,2.73958 z m 69.42362,-5.27493 c 1.74133,-8.11955 1.92088,-27.93438 0.25313,-27.93438 -2.25442,0 -3.16922,4.70618 -3.82285,19.66667 -0.7092,16.23221 1.00846,20.21042 3.56972,8.26771 z m -93.27083,-7.97669 c 36.07912,-3.1932 55.61863,-10.34144 70.42977,-25.7657 4.55668,-4.74531 8.28487,-9.48678 8.28487,-10.5366 0,-3.06806 -4.32143,-6.48517 -15.63018,-12.35933 -7.35715,-3.82157 -11.95926,-12.43438 -12.99395,-24.31808 -0.7999,-9.18705 0.74366,-33.45879 2.75438,-43.31131 0.41157,-2.01667 0.48312,-3.66667 0.15902,-3.66667 -0.3241,0 -3.73099,4.22497 -7.57087,9.38882 -3.83988,5.16386 -8.57237,10.38518 -10.51666,11.60295 -1.94429,1.21777 -6.07167,4.4928 -9.17195,7.27785 -3.10028,2.78504 -6.40028,5.06515 -7.33333,5.06689 -0.93305,0.002 -5.22744,2.40175 -9.54309,5.33334 -4.31564,2.93158 -8.82636,5.33015 -10.02382,5.33015 -1.19745,0 -4.38464,-1.5 -7.08263,-3.33333 -2.69799,-1.83333 -6.17731,-3.33333 -7.73181,-3.33333 -1.5545,0 -4.79297,1.5 -7.19659,3.33333 -6.70437,5.11367 -14.92212,3.88194 -21.32832,-3.19683 -1.39526,-1.54174 -3.41722,-2.80317 -4.49325,-2.80317 -2.59079,0 -25.38561,-23.40062 -29.63029,-30.41774 -1.83333,-3.0308 -3.87365,-5.52667 -4.53403,-5.5464 -0.70132,-0.0209 -0.81486,9.10035 -0.273,21.93092 0.60613,14.35228 0.43245,23.80602 -0.50103,27.27271 -1.82277,6.76925 -6.90634,12.80214 -13.71423,16.27527 -6.06293,3.09308 -6.37972,3.31619 -13.51179,9.51623 -6.91138,6.00818 -6.09916,8.91048 5.83282,20.84246 15.37736,15.37736 34.91772,23.01041 64.76169,25.29785 21.0195,1.61107 23.62114,1.61875 40.55827,0.11972 z M 451.3788,387.60702 c 1.75478,-10.13806 -7.45348,-23.01023 -21.37879,-29.88525 -5.889,-2.90744 -21.90416,-7.59538 -22.81976,-6.67977 -0.31925,0.31924 3.0346,2.14824 7.45299,4.06445 9.69106,4.20289 10.74771,5.92452 1.36677,2.2269 -10.75128,-4.23776 -7.6429,-0.7795 3.66667,4.07939 13.73644,5.90154 18.76492,9.39348 23.3431,16.21023 3.05408,4.54741 3.78118,7.02781 3.62497,12.36605 -0.10748,3.67271 -0.123,7.27766 -0.0345,8.01099 0.30227,2.50454 3.90081,-5.32204 4.77854,-10.39299 z m -277.54019,6.33279 c 0.43482,-1.13311 2.9232,-2.95127 5.52974,-4.04035 4.97126,-2.07713 5.13783,-4.56611 0.30557,-4.56611 -3.54682,0 -9.00725,4.9907 -9.00725,8.23242 0,2.96649 2.08287,3.21211 3.17194,0.37404 z m 270.1614,-3.42492 c 0,-9.20582 -8.73387,-18.74809 -21.16763,-23.12688 -12.80713,-4.51028 -12.13804,-1.62081 1.25428,5.41665 10.60233,5.57137 15.42177,10.55244 16.67535,17.2346 1.07942,5.75378 3.238,6.07085 3.238,0.47563 z M 173.62155,378.66668 c 1.45201,0 0.69546,1.41633 -2.42154,4.53333 -2.49334,2.49334 -4.53334,5.61104 -4.53334,6.92823 0,1.95156 0.80216,1.63324 4.33334,-1.71959 6.03286,-5.72816 8.91905,-6.26051 16.89574,-3.1164 9.87428,3.89208 20.12059,3.64379 25.17601,-0.61007 4.8167,-4.05299 8.26158,-10.98689 8.26158,-16.62903 0,-5.06913 -2.01155,-4.32874 -3.10594,1.14321 -0.43103,2.15517 -2.65436,6.04907 -4.94073,8.6531 -4.86227,5.53782 -11.23933,7.30843 -16.46358,4.57116 -3.30273,-1.73047 -3.10031,-1.81873 4.09872,-1.78716 7.36862,0.0323 7.67786,-0.11506 11.45668,-5.46052 2.13601,-3.02155 3.65698,-6.62155 3.37993,-8 -0.38412,-1.91114 -1.1276,-1.24148 -3.13107,2.82017 -3.74376,7.58975 -7.91651,8.71609 -18.38414,4.96238 -9.51396,-3.41172 -18.10164,-3.78666 -23.44483,-1.02359 -5.42786,2.80686 -12.13171,10.97233 -12.13171,14.77675 0,3.01997 0.51362,2.74964 6.42155,-3.37973 3.53185,-3.66423 7.37185,-6.66224 8.53333,-6.66224 z m 293.64736,-3.66667 c 1.30183,-10.70374 1.18444,-15.03149 -0.58606,-21.60662 -1.68252,-6.24842 -9.96425,-16.01806 -18.72515,-22.08937 -8.08924,-5.60585 -11.1047,-11.44297 -10.9566,-21.2091 0.0719,-4.74256 1.27618,-11.21719 2.86322,-15.39394 1.50649,-3.96478 2.52798,-7.4198 2.26996,-7.67781 -1.10547,-1.10548 -7.48183,8.14654 -8.74226,12.68491 -2.09111,7.52939 -1.70227,21.2351 0.74903,26.40081 1.37456,2.89668 6.39194,7.62021 14.01536,13.19455 11.85445,8.66811 17.24609,14.99169 17.078,20.02991 -0.0535,1.6034 -0.85896,0.56374 -2.02012,-2.60746 -2.54334,-6.94605 -5.54608,-9.96485 -15.98324,-16.06872 -4.77397,-2.79193 -10.13816,-6.80922 -11.92042,-8.92732 -7.05857,-8.38863 -7.4616,-22.06785 -1.25792,-42.69447 6.28379,-20.893 8.61397,-30.81013 8.61397,-36.66068 0,-7.71867 -2.07258,-6.25457 -3.07021,2.16885 -0.43131,3.64178 -3.50135,13.57051 -6.82231,22.06385 -9.14853,23.39735 -10.7481,38.22948 -5.48207,50.83286 2.22066,5.31478 10.68369,13.93757 18.32923,18.67523 7.58084,4.69757 12.82504,9.66674 15.35654,14.55119 1.63276,3.15036 0.68704,2.54458 -4.45237,-2.85196 -4.73335,-4.97017 -10.03259,-8.54602 -19.29556,-13.0204 -14.37514,-6.94374 -18.99509,-11.05919 -21.09826,-18.79431 -3.48309,-12.81029 -0.86903,-23.5685 11.32477,-46.60737 4.13328,-7.80941 7.23717,-14.47681 6.89753,-14.81645 -0.96956,-0.96957 -16.809,28.91415 -19.72895,37.22191 -6.99638,19.90597 -0.83378,35.10978 18.56942,45.81276 4.84307,2.67148 11.38811,6.67699 14.54455,8.90115 5.82297,4.10309 13.95607,15.80388 15.6312,22.488 1.45067,5.78848 2.88751,4.31431 3.89872,-4 z M 190.0606,357.21616 c 2.12344,-4.10628 7.50636,-7.12574 22.16755,-12.4345 8.3337,-3.01761 16.30902,-11.78186 19.01593,-20.89703 2.32725,-7.83669 2.93343,-25.92074 0.75593,-22.55129 -0.71088,1.1 -1.31487,5 -1.3422,8.66667 -0.10266,13.77023 -8.75903,24.33666 -25.03141,30.55468 -10.63828,4.06512 -18.95973,11.72357 -18.95973,17.44916 0,4.38898 0.81476,4.19989 3.39393,-0.78769 z m 8.22983,-18.98609 c 17.00259,-14.06658 22.99945,-24.91089 24.05678,-43.50257 0.7771,-13.66436 -1.27136,-22.82087 -8.52075,-38.08717 l -5.05267,-10.64032 -0.48274,5.25757 c -0.2655,2.89167 0.81777,12.13584 2.40727,20.5426 3.06345,16.20243 2.83957,25.30829 -0.80809,32.8665 -1.06174,2.2 -1.55857,2.8 -1.10407,1.33333 0.4545,-1.46667 1.12096,-7.76667 1.48103,-14 0.61384,-10.62682 0.38086,-11.95672 -3.73728,-21.33333 -7.92541,-18.04539 -4.83732,-33.38983 10.19675,-50.66667 10.51952,-12.08882 16.23245,-21.96106 18.51433,-31.9937 2.38961,-10.50635 2.85931,-27.01835 0.60808,-21.37728 -0.72338,1.81263 -1.76692,3.61263 -2.31899,4 -0.55207,0.38737 -5.59817,6.40431 -11.21357,13.37098 -5.61539,6.96666 -12.9044,15.93783 -16.1978,19.93592 -11.52624,13.99254 -15.91071,26.76051 -13.53608,39.41834 1.15702,6.16746 2.18068,5.22044 3.52082,-3.25727 1.17294,-7.41997 3.03293,-10.38464 17.01038,-27.11313 5.37927,-6.43802 11.88746,-15.14313 14.46266,-19.34468 2.5752,-4.20155 4.26167,-6.13918 3.74773,-4.30585 -1.75966,6.27699 -7.25841,14.35902 -18.50273,27.19519 -13.12091,14.97842 -15.48815,20.44743 -15.48815,35.78208 0,8.76625 0.67912,12.08802 4.10847,20.09582 5.89798,13.77225 6.16109,20.02689 1.59541,37.92691 -2.10428,8.25 -3.35227,15 -2.77329,15 1.50475,0 8.71625,-10.17059 12.76295,-18 4.98308,-9.64105 4.95191,-26.02209 -0.0808,-42.48249 -5.05698,-16.53958 -4.27865,-17.58337 1.13156,-1.51751 3.81903,11.34075 4.49728,15.22629 4.53851,26 0.0663,17.31242 -3.47486,24.7785 -19.95936,42.08235 -13.88878,14.57912 -17.34241,19.63709 -17.24161,25.25099 0.066,3.67751 0.32264,3.44845 3.18277,-2.84113 2.35436,-5.17735 5.68441,-8.9702 13.69253,-15.59548 z m 4.37624,-119.5634 c 0.78494,-1.46666 1.72716,-2.66666 2.09383,-2.66666 0.36666,0 0.0244,1.2 -0.76049,2.66666 -0.78494,1.46667 -1.72716,2.66667 -2.09383,2.66667 -0.36666,0 -0.0244,-1.2 0.76049,-2.66667 z m 15.6173,-19.7006 c 3.67098,-4.602 8.85885,-12.61363 11.5286,-17.80363 3.87614,-7.5352 4.82733,-8.67004 4.7212,-5.63273 -0.14785,4.23128 -2.19162,11.54752 -2.40086,8.59452 -0.0731,-1.03167 -3.06023,2.26833 -6.63807,7.33334 -3.57784,5.06501 -8.16571,10.7091 -10.19526,12.54244 -2.02956,1.83333 -0.68658,-0.43194 2.98439,-5.03394 z m -14.95063,156.69504 c 16.00337,-5.15227 19.51361,-6.65162 23.57652,-10.07033 4.9182,-4.13839 10.42858,-15.31061 10.32022,-20.9241 l -0.0772,-4 -1.44279,3.33333 c -7.08323,16.3646 -9.99441,18.99744 -26.70193,24.14896 -9.50893,2.93193 -17.05955,7.27214 -18.08728,10.39684 -0.46025,1.39936 0.0241,1.59979 1.89721,0.78501 1.3834,-0.60176 6.11527,-2.25313 10.51527,-3.66971 z m 102.78048,-12.09204 c -0.45183,-2.25914 -1.86227,-5.36527 -3.13432,-6.90252 -1.27205,-1.53725 -0.66282,-1.10663 1.35384,0.95693 2.40803,2.46403 3.66667,5.17382 3.66667,7.89416 0,3.5308 0.29522,3.89722 2,2.48237 2.41026,-2.00034 2.72203,-13.45563 0.4832,-17.75432 -0.83423,-1.60179 -4.43424,-6.02643 -8,-9.83253 -8.73552,-9.32432 -8.4687,-12.41938 2.09618,-24.31487 7.43697,-8.37363 8.11581,-13.70738 2.42062,-19.01924 -4.69804,-4.38183 -9.40553,-6.79789 -11.6025,-5.95483 -2.7552,1.05727 -3.65825,9.56586 -1.94143,18.2923 1.55021,7.87953 1.50902,8.12608 -1.96258,11.74966 -3.67597,3.83688 -6.16559,10.37516 -6.15272,16.15836 0.0177,7.94864 2.99412,13.90095 10.78874,21.57549 4.32877,4.26209 7.87049,8.38857 7.87049,9.16997 0,0.7814 0.66045,1.01255 1.46766,0.51366 0.86663,-0.5356 1.13124,-2.58916 0.64615,-5.01459 z m -13.88139,-21.32166 c -3.61832,-3.85153 -3.68352,-8.81601 -0.20532,-15.63385 1.48157,-2.90412 2.878,-5.28022 3.10318,-5.28022 0.22518,0 -0.75734,3.55862 -2.18338,7.90803 l -2.59279,7.90804 2.91374,4.09197 c 3.45785,4.8561 2.99971,5.30124 -1.03543,1.00603 z m 43.86032,21.7526 c 0.68232,0 1.24059,0.6342 1.24059,1.40933 0,1.80243 14.76722,-14.01671 17.06437,-18.27991 0.95207,-1.76691 1.8285,-6.72917 1.94763,-11.02723 0.18457,-6.65891 -0.35762,-8.64326 -3.66606,-13.41733 l -3.88265,-5.60268 2.26836,-6.38671 c 2.8892,-8.13475 3.02974,-18.48699 0.26537,-19.54778 -3.25763,-1.25007 -8.06949,0.56069 -12.50806,4.70693 -3.1792,2.96983 -4.15562,5.02178 -4.15562,8.7331 0,4.13534 1.27883,6.2128 8.66666,14.07895 7.76078,8.26323 8.66667,9.79993 8.66667,14.70154 0,7.36244 -1.23121,9.26234 -10.26819,15.84496 l -7.73181,5.63193 7.6848,-7.08921 c 7.07883,-6.53022 7.68336,-7.54127 7.66666,-12.8221 -0.02,-6.31227 -2.25277,-11.58953 -6.54829,-15.47692 -3.74574,-3.38985 -3.53925,-1.73197 0.53016,4.25671 1.83334,2.698 3.33334,5.69187 3.33334,6.65305 0,0.96119 -2.59674,4.57191 -5.77053,8.02383 -3.17379,3.45191 -6.77379,7.75971 -8,9.57288 -2.59216,3.83298 -2.91799,12.88508 -0.65811,18.2832 1.49922,3.58113 1.5953,3.61573 2.09274,0.75346 0.28675,-1.65 1.07964,-3 1.76197,-3 z m -38.81077,-1 c -0.0282,-0.55 -1.94884,-2.2 -4.26798,-3.66667 -6.70821,-4.24238 -9.00228,-9.61631 -10.20863,-23.91404 -1.47812,-17.51865 -3.27046,-17.99795 -2.53236,-0.6772 0.4985,11.69834 1.14208,15.04029 3.81081,19.78865 3.02608,5.38419 7.83808,9.29593 11.58286,9.41588 0.91666,0.0294 1.64355,-0.39662 1.6153,-0.94662 z m 54.4754,-1.70721 c 5.657,-3.44896 9.21294,-11.44749 11.22428,-25.24725 1.15462,-7.9219 1.17066,-11.09323 0.0617,-12.20219 -1.10896,-1.10895 -1.69919,0.18945 -2.27101,4.9958 -2.40038,20.17598 -4.54504,25.40833 -12.49908,30.49418 -7.51916,4.80779 -4.22575,6.65999 3.4841,1.95946 z m -74.48167,-19.95946 c -0.63776,-3.3 -1.1857,-10.65 -1.21763,-16.33333 -0.0381,-6.77826 -0.57812,-10.33333 -1.56967,-10.33333 -1.94096,0 -0.80973,24.32206 1.38842,29.85158 2.13722,5.37625 2.77346,3.92768 1.39888,-3.18492 z m 89.49804,-10.33285 c -1.04049,-1.78642 -1.36882,-0.56117 -1.39986,5.2238 -0.0572,10.65236 1.85131,14.51584 2.35931,4.7762 0.21992,-4.2164 -0.21183,-8.7164 -0.95945,-10 z m -56.6841,7.84309 c -4.13947,-8.16886 -4.2092,-10.06052 -0.66613,-18.07022 1.51626,-3.42776 2.5345,-6.89931 2.26276,-7.71455 -0.89899,-2.69695 -10.76832,10.91703 -11.61082,16.01621 -0.76151,4.60906 -0.38375,5.32302 5.88875,11.12978 3.68636,3.41263 6.89281,6.02229 7.12544,5.79924 0.23264,-0.22304 -1.11736,-3.44525 -3,-7.16046 z m 26.3602,1.77085 c 7.16569,-6.95923 7.38002,-9.74808 1.64148,-21.35922 -2.69701,-5.45703 -5.47088,-9.92187 -6.16415,-9.92187 -1.72199,0 -1.70119,0.10167 2.07283,10.12831 3.8835,10.3175 4.09577,12.91241 1.24949,15.27461 -1.8171,1.50806 -1.97766,1.30637 -1.25433,-1.57558 1.06623,-4.24821 -3.78449,-17.36971 -7.87749,-21.30908 -5.89009,-5.66901 -8.46255,-4.77114 -12.83978,4.48149 -4.75729,10.056 -4.81675,11.78486 -0.69923,20.33359 3.087,6.4092 3.21508,6.50699 3.31618,2.53229 0.0578,-2.2739 -0.54729,-6.00597 -1.34472,-8.2935 -1.08672,-3.11735 -1.02321,-5.42151 0.25355,-9.19896 l 1.70343,-5.03983 1.21631,5.96027 c 1.1227,5.50154 1.35843,5.76592 3.06283,3.43502 1.01558,-1.38888 2.23204,-4.58034 2.70326,-7.09212 l 0.85675,-4.56687 2.75743,7.13185 c 1.92721,4.98457 2.66733,9.64088 2.45819,15.46518 -0.16458,4.58333 0.22463,8.33333 0.86491,8.33333 0.64029,0 3.35066,-2.12351 6.02306,-4.71891 z m 109.69377,-7.99432 c -1.37458,-12.50942 -3.57801,-13.53992 -3.82376,-1.78831 -0.14046,6.71699 1.86364,13.16821 4.09077,13.16821 0.5409,0 0.42074,-5.12096 -0.26701,-11.3799 z m -74.45957,-1.10468 c -0.37459,-4.66652 -1.38132,-9.61652 -2.23719,-11 -1.22954,-1.98752 -1.37299,-0.41677 -0.68353,7.48458 0.47992,5.5 1.13991,10.45 1.46665,11 1.59601,2.68655 2.0733,0.22976 1.45407,-7.48458 z m -101.68094,-8.86637 c 1.47869,-8.41042 3.2443,-13.21993 7.34409,-20.00531 5.53905,-9.16745 7.98614,-15.6166 7.98614,-21.04696 0,-4.89666 -2.25307,-2.19904 -3.95257,4.73244 -1.57318,6.4163 -6.55537,16.97798 -6.65821,14.11465 -0.0307,-0.85587 1.16292,-4.39947 2.65256,-7.87467 3.57907,-8.34963 2.41603,-11.04874 -1.26882,-2.94457 -3.99886,8.7948 -8.10075,25.32469 -9.02654,36.37537 -1.0284,12.27538 0.47995,10.54641 2.92335,-3.35095 z m 114.69464,-11.61904 c -0.45022,-2.39984 -1.42815,-4.36334 -2.17319,-4.36334 -1.33329,0 -0.74887,7.98011 1.22058,16.66666 0.83573,3.68615 0.9408,3.53157 1.33903,-1.96998 0.23768,-3.2835 0.0638,-7.9335 -0.38642,-10.33334 z m -120.25882,-4.03001 c 0.58877,-0.93296 0.45083,-1.66667 -0.31332,-1.66667 -3.16346,0 -6.73092,13.65282 -4.77713,18.28228 0.70332,1.66649 1.4628,-0.22501 2.52248,-6.28228 0.8339,-4.76666 1.98949,-9.41666 2.56797,-10.33333 z m -0.88921,14 c -0.36989,-0.91667 -0.67252,-0.16667 -0.67252,1.66667 0,1.83333 0.30263,2.58333 0.67252,1.66666 0.36988,-0.91666 0.36988,-2.41666 0,-3.33333 z M 376.709,292.91122 c -3.82774,-16.3735 -7.36031,-27.23863 -9.40883,-28.93875 -2.50609,-2.07987 -2.48992,-1.91032 0.70329,7.37091 3.22846,9.38366 2.58415,11.46307 -0.74497,2.4043 -4.69668,-12.78 -6.29233,-15.88948 -6.88849,-13.4238 -0.30903,1.27813 1.62318,7.27813 4.29379,13.33333 2.67062,6.05521 6.3362,14.90947 8.14574,19.67613 1.80953,4.76667 3.63751,9.56667 4.06217,10.66667 0.59886,1.55121 0.91845,1.60609 1.42425,0.24455 0.35868,-0.9655 -0.35545,-6.0655 -1.58695,-11.33334 z m -122.04233,2.94389 c 0,-4.93673 3.85515,-10.29678 8.65389,-12.03203 2.5737,-0.93066 4.67945,-2.21201 4.67945,-2.84744 0,-2.20107 -11.6556,2.65573 -14.2466,5.93645 -1.97736,2.50375 -3.22478,8.51009 -2.27917,10.97431 1.05016,2.73667 3.19243,1.37357 3.19243,-2.03129 z m 138.66668,-1.75398 c 0,-5.30718 -3.76789,-10.4625 -9.3309,-12.76678 -4.89488,-2.02752 -6.88373,-0.8984 -2.44997,1.39092 6.49368,3.35293 9.1142,6.87578 9.1142,12.25251 0,3.11355 0.53184,4.85091 1.33333,4.35556 0.73334,-0.45322 1.33334,-2.80772 1.33334,-5.23221 z m -127.05699,-3.75224 c -0.31893,-1.65855 -0.59197,-0.61555 -0.60677,2.31779 -0.0148,2.93333 0.24614,4.29033 0.57986,3.01554 0.33372,-1.27478 0.34583,-3.67478 0.0269,-5.33333 z m -3.54906,-11.69854 c 5.71721,-1.53948 7.11513,-3.98674 2.27271,-3.97869 -3.36807,0.006 -11.4232,4.53231 -13.93402,7.83046 -3.00113,3.94221 -1.79371,4.45299 2.32798,0.98482 2.23334,-1.87924 6.43334,-4.0557 9.33333,-4.83659 z m 131.93938,2.77977 c 0,-0.68011 -1.58092,-2.48011 -3.51315,-4 -3.6017,-2.8331 -12.48685,-3.85071 -12.48685,-1.43011 0,0.73333 1.35,1.33649 3,1.34035 1.65,0.004 4.8,1.16 7,2.5692 4.56034,2.92111 6,3.28595 6,1.52056 z m 14.66667,-14.09244 c 0,-3.21583 -0.6,-6.21778 -1.33334,-6.671 -0.81115,-0.50133 -1.33333,1.45676 -1.33333,4.9998 0,3.20312 -0.83621,6.96743 -1.85824,8.36514 -1.73775,2.37652 -1.95339,2.19853 -3.32589,-2.74516 -0.80722,-2.90755 -1.51318,-7.08645 -1.56881,-9.28645 -0.0556,-2.2 -0.61681,-5.2 -1.24706,-6.66667 -1.75947,-4.0945 -1.63525,9.51303 0.14606,16 2.32835,8.47915 3.86422,9.58981 7.46785,5.40034 2.17781,-2.53185 3.05276,-5.22483 3.05276,-9.396 z m -162.33818,8.99566 c 3.2088,-3.60806 5.45705,-12.83812 4.44332,-18.24177 -0.4986,-2.65778 -1.40773,-4.52259 -2.02029,-4.14401 -1.45322,0.89814 -6.04592,17.86917 -5.09349,18.82159 0.40197,0.40197 1.64599,-1.85664 2.76448,-5.01914 1.11849,-3.1625 2.08099,-4.68073 2.13889,-3.37384 0.17482,3.94639 -3.72542,11.90186 -5.54244,11.30511 -2.84459,-0.93421 -2.56081,-6.5322 0.89363,-17.6284 3.78366,-12.15366 3.44041,-14.78388 -0.70604,-5.41014 -2.90012,6.55619 -4.85434,20.21068 -3.42546,23.93428 1.05926,2.76039 3.97217,2.65198 6.5474,-0.24368 z m 91.56947,-4.82345 c 12.01336,-3.97375 1.16385,-8.06911 -19.22391,-7.25642 -19.96127,0.79568 -24.62586,4.62718 -10.42187,8.56052 7.0015,1.93884 21.81131,1.28737 29.64578,-1.3041 z m 66.1639,-8.22882 c -0.48543,-3.23706 -1.5135,-6.27549 -2.2846,-6.75206 -1.3684,-0.84572 -0.66304,7.1012 1.19568,13.471 1.29558,4.43994 2.05739,-0.26067 1.08892,-6.71894 z m 46.64845,-17.70962 c -0.4158,-3.90238 -2.1643,-9.86632 -3.88556,-13.25321 -3.21099,-6.31818 -15.7377,-21.18901 -22.77444,-27.03622 -4.81246,-3.99894 -4.14009,-2.7874 7.61641,13.72379 9.95022,13.97438 13.56494,21.79574 14.94132,32.3293 0.47899,3.6657 1.23004,8.1649 1.66902,9.99823 1.32799,5.54624 3.32516,-7.39086 2.43325,-15.76189 z m -68.43329,4.41184 c 4.73339,-7.00236 9.48724,-16.64993 13.79706,-28 6.02746,-15.87357 6.57273,-18.26106 6.54321,-28.64995 -0.0294,-10.3412 -0.48544,-12.30257 -5.20976,-22.40509 -4.32344,-9.2453 -6.09567,-11.6098 -10.74302,-14.33333 -6.32727,-3.70803 -14.75029,-4.25043 -26.26555,-1.69138 l -7.06563,1.57021 9.35291,1.46047 c 10.12955,1.58174 17.25579,5.23508 22.59971,11.58597 3.65715,4.34627 3.42733,6.47982 -0.69797,6.47982 -1.42339,0 -2.58798,0.63373 -2.58798,1.4083 0,0.77457 -2.80346,2.64841 -6.22991,4.1641 -4.89632,2.16587 -7.96454,2.60808 -14.33333,2.0658 -7.56463,-0.6441 -19.32471,-5.00555 -24.03304,-8.91312 -2.90326,-2.40949 -3.0639,-1.41546 -3.95883,24.49752 -0.42844,12.40576 -1.07882,22.85577 -1.44527,23.22222 -1.92743,1.92743 -2.58354,-3.34543 -3.09088,-24.8403 -1.05129,-44.5407 3.34511,-50.85114 35.46742,-50.90858 17.78986,-0.0318 21.91154,0.99872 29.46442,7.36687 3.76242,3.17225 4.38175,3.37089 3.74783,1.20205 -0.41768,-1.42901 -1.4395,-7.3982 -2.27071,-13.26487 -3.30474,-23.32475 -7.44231,-33.58622 -17.03794,-42.255298 -8.22254,-7.428569 -20.75593,-15.461421 -28.84765,-18.488922 -4.09072,-1.530534 -10.52372,-5.222169 -14.29556,-8.203635 l -6.85788,-5.420847 -11.15798,0.78743 c -10.59983,0.748041 -11.54053,1.078604 -18.806,6.608491 -4.20641,3.201584 -13.21544,9.607695 -20.02005,14.235802 -6.80461,4.628107 -13.51554,9.868493 -14.91318,11.645299 -5.01282,6.37277 -14.7148,41.54051 -14.7148,53.3382 v 4.62795 l 5.60638,-4.79885 c 7.66469,-6.56069 12.82126,-7.8034 29.94752,-7.21721 11.05919,0.37853 15.46946,1.06862 18.18006,2.84467 3.98298,2.60975 9.44289,12.47457 10.8648,19.63026 l 0.92732,4.66667 -2.54696,-4 c -3.48936,-5.48005 -6.54737,-7.78432 -9.05407,-6.82241 -1.40601,0.53954 -1.82613,1.70027 -1.26046,3.4825 1.10402,3.47849 -0.91344,3.41489 -4.12146,-0.12993 -3.19879,-3.53463 -8.92223,-6.53016 -12.47691,-6.53016 -3.73414,0 -3.48275,-2.63372 0.26712,-2.7985 1.95686,-0.086 0.91373,-0.80817 -3,-2.07697 -12.35677,-4.00596 -25.1161,-0.13369 -31.45944,9.54747 -3.23923,4.94368 -5.8252,16.22557 -6.73813,29.39667 l -0.83653,12.06867 6.92323,15.86677 c 7.34809,16.84046 19.26076,37.75336 22.13348,38.85573 0.9481,0.36382 7.93087,-3.21139 15.51727,-7.94492 7.5864,-4.73353 15.15329,-9.01939 16.81532,-9.52413 l 3.02187,-0.91771 -2.68854,-3.7757 c -3.14525,-4.4171 -3.44758,-9.14964 -0.81456,-12.75052 1.76278,-2.41075 1.8344,-2.35577 1.20698,0.9264 -0.61132,3.1979 -0.23902,3.54255 4.45935,4.12811 2.8195,0.3514 7.07411,1.45054 9.4547,2.44253 3.79302,1.58056 4.80787,1.52035 8.20572,-0.48681 2.13256,-1.25973 6.05365,-2.29043 8.71351,-2.29043 5.516,0 7.05566,-2.22124 4.77982,-6.89581 l -1.51129,-3.10419 2.74195,3.14772 c 1.50808,1.73124 2.74195,4.14773 2.74195,5.36999 0,3.39247 -3.91476,8.24185 -8.06066,9.98507 l -3.71852,1.56352 7.33561,7.63352 c 4.03458,4.19844 7.58489,7.63352 7.88959,7.63352 1.57496,0 0.0534,-2.77143 -4.3383,-7.9022 l -4.89228,-5.71553 5.89228,3.00326 c 3.24076,1.6518 9.79228,5.53509 14.55895,8.62953 11.51012,7.4722 13.83819,8.65786 14.86102,7.56857 0.47357,-0.50433 4.11077,-5.72449 8.08267,-11.60035 z M 266.66668,180.00001 c -3.3,-2.19372 -6.75001,-3.99116 -7.66667,-3.9943 -2.83838,-0.01 -1.86472,-2.44547 3.23313,-8.08818 5.56097,-6.15533 10.88637,-9.31383 15.36732,-9.11438 2.50576,0.11154 2.33507,0.31293 -0.93378,1.10181 -5.54397,1.33792 -8.77878,3.24704 -12.66667,7.47559 l -3.33333,3.62541 4.01759,-2.04061 c 2.20968,-1.12234 7.54844,-3.06705 11.86392,-4.3216 9.20661,-2.67643 15.6431,-1.45055 20.7117,3.94474 l 3.10018,3.29999 -3.8467,4.60871 c -7.28509,8.72823 -19.7802,10.19466 -29.84669,3.50282 z m 7.86803,-0.13197 c -1.9485,-1.9485 -2.62618,-3.97361 -2.23092,-6.66667 0.6624,-4.51325 0.61839,-4.53374 -3.68403,-1.71468 -4.43641,2.90685 -4.13416,5.36897 1.04692,8.52793 5.73355,3.49582 8.42926,3.41465 4.86803,-0.14658 z m 18.6819,-2.83442 4.01844,-4.29971 -2.84994,-3.03362 c -1.56747,-1.66849 -3.93249,-3.03362 -5.2556,-3.03362 -2.09975,0 -2.20709,0.43584 -0.84407,3.42732 1.15854,2.54273 1.18106,4.43546 0.0872,7.33333 -1.92396,5.09716 -0.1532,4.95324 4.84394,-0.3937 z m 16.74808,75.05978 c 9.55818,-6.81136 9.98284,-11.03153 0.83424,-8.29054 -4.98134,1.49244 -13.46559,9.29779 -13.46559,12.38809 0,2.28152 6.75454,0.0904 12.63135,-4.09755 z m 98.65416,-4.09339 c -1.02595,-5.5461 -4.40294,-13.99368 -5.2539,-13.14272 -0.33003,0.33003 0.25575,3.84425 1.30173,7.80938 2.16686,8.21419 1.72589,10.58287 -0.63718,3.42267 -0.8633,-2.6158 -2.12309,-4.756 -2.79956,-4.756 -1.66222,0 -1.63432,0.15246 1.61899,8.84773 2.65666,7.10054 2.97662,7.44135 4.74106,5.05001 1.26491,-1.71432 1.60597,-4.11137 1.02886,-7.23107 z m -78.69395,6.7882 c 0.77197,-1.24908 -6.54083,-8.12154 -8.64192,-8.12154 -1.75583,0 -6.6163,5.57191 -6.6163,7.58475 0,2.0405 14.02396,2.53387 15.25822,0.53679 z m 11.63104,-4.55018 c -3.47641,-3.69909 -10.88926,-8.11254 -10.88926,-6.48322 0,2.28323 12.46417,12.85267 13.05753,11.0726 0.30886,-0.92658 -0.66686,-2.9918 -2.16827,-4.58938 z m -5.55593,3.35687 c 0,-1.84972 -9.2462,-10.12647 -10.22222,-9.15045 -0.51086,0.51086 1.09785,3.01985 3.57491,5.57553 4.39146,4.53084 6.64731,5.74403 6.64731,3.57492 z m -89.79187,-14.49787 c -0.76353,-0.76353 -4.01377,6.31206 -5.36798,11.68578 -0.44591,1.76946 0.74114,0.0257 2.63791,-3.875 1.89676,-3.90071 3.12529,-7.41556 2.73007,-7.81078 z m 212.06638,-1.72134 c -1.36193,-16.2451 -8.56388,-27.26304 -25.91302,-39.64313 -11.85687,-8.46088 -17.30322,-15.36266 -20.54486,-26.03506 -1.50867,-4.96696 -3.06614,-9.03083 -3.46106,-9.03083 -1.82544,0 1.38596,13.48989 4.93876,20.74586 2.96033,6.04596 6.87707,10.73837 15.56349,18.6457 14.36063,13.07262 21.95975,23.22907 25.01378,33.43165 1.29132,4.3139 2.57964,8.59346 2.86295,9.51013 0.2833,0.91666 0.92095,1.66666 1.41699,1.66666 0.49604,0 0.55138,-4.18094 0.12297,-9.29098 z m -45.57105,-6.82493 c 0.48574,-1.53043 0.49898,-4.83043 0.0294,-7.33334 -1.51748,-8.08887 -4.73289,-4.76561 -4.73289,4.89164 0,5.76732 3.13192,7.39319 4.70346,2.4417 z m -174.25962,-2.45747 c 0.24411,-1.66715 0.0694,-4.52311 -0.38827,-6.34657 -0.68437,-2.72675 -1.17745,-3.02878 -2.77717,-1.70112 -1.97779,1.64142 -2.69914,9.42256 -1.0284,11.0933 1.61653,1.61653 3.73663,0.0769 4.19384,-3.04561 z M 453.35162,206.0383 c -3.58139,-7.50413 -5.93722,-10.16078 -17.14275,-19.33175 -7.14493,-5.84764 -15.05299,-13.38438 -17.57348,-16.74831 -5.94591,-7.93561 -6.68388,-5.35488 -1.48725,5.20098 3.25022,6.60213 7.36611,11.38383 19.94962,23.17676 8.79473,8.24218 16.68151,16.81893 17.71172,19.26123 l 1.8572,4.4028 0.41846,-3.63102 c 0.23869,-2.07113 -1.36523,-7.3684 -3.73352,-12.33069 z m -252.3384,-2.03829 c 3.0464,-4.03334 9.8061,-12.13334 15.02155,-18 8.49941,-9.56066 17.01647,-22.72655 15.61105,-24.13197 -0.2934,-0.2934 -7.69529,6.81626 -16.44863,15.79925 -14.25214,14.62606 -16.22738,17.23833 -18.903,24.99938 -4.66945,13.54442 -4.53314,13.58293 4.71903,1.33334 z m 28.02463,-51.15896 c 6.53574,-10.03752 19.74323,-37.15183 20.99279,-43.09713 0.76047,-3.61829 0.71571,-3.65444 -1.33391,-1.07725 -1.16643,1.46667 -6.92118,10.68881 -12.78833,20.49365 -12.81974,21.4236 -16.56275,26.94558 -24.62715,36.33193 -7.21303,8.39542 -12.03835,16.24345 -13.41089,21.81181 -0.77869,3.15916 1.69695,0.97903 12.11254,-10.66667 7.2002,-8.05056 15.77492,-18.75891 19.05495,-23.79634 z m 221.58437,30.99385 c -1.92704,-7.15647 -7.37619,-18.04819 -17.26123,-34.50156 -4.18551,-6.96667 -10.13891,-17.55528 -13.22977,-23.53025 -5.71847,-11.05442 -10.01984,-16.36225 -11.80605,-14.56851 -1.34094,1.3466 13.95571,30.63779 24.50357,46.9213 4.69474,7.2476 10.7669,17.4894 13.4937,22.75955 2.72681,5.27016 5.15921,9.38072 5.40534,9.13459 0.24612,-0.24612 -0.25138,-3.04293 -1.10556,-6.21512 z m -8.0554,-7.48692 c -2.37178,-4.22472 -7.89257,-13.01302 -12.26843,-19.52957 -4.37587,-6.51654 -11.82233,-19.11654 -16.54771,-28 -14.07088,-26.4525 -17.01667,-25.37873 -4.32185,1.57535 8.34492,17.7182 18.16138,33.90466 28.29721,46.65954 9.02611,11.3584 11.41777,11.00992 4.84078,-0.70532 z m -67.90014,3.22209 c 3.3,-1.61656 6,-3.80725 6,-4.86819 0,-1.8713 -7.85836,-8.03521 -10.24409,-8.03521 -0.65069,0 -0.56196,1.16056 0.19718,2.57901 2.11541,3.95268 1.65347,7.81444 -1.28642,10.75433 -3.35992,3.35991 -2.21471,3.26759 5.33333,-0.42994 z m -18.75385,-1.06629 c -0.83288,-1.55626 -1.16899,-4.55626 -0.74691,-6.66667 0.42208,-2.11041 0.22846,-3.8371 -0.43027,-3.8371 -1.47645,0 -9.40488,6.56956 -9.39551,7.78519 0.006,0.8324 8.79048,5.14488 11.04012,5.42007 0.5758,0.0704 0.36546,-1.14523 -0.46743,-2.70149 z m -1.6457,-12.34637 c 6.77119,-3.42343 15.92997,-2.73546 24.18812,1.81692 7.77277,4.28481 6.87041,1.99707 -1.65529,-4.19662 -4.47687,-3.25233 -6.42388,-3.77363 -14,-3.74842 -9.39181,0.0312 -17.91969,2.95825 -21.46662,7.36791 -1.60566,1.99622 -0.94843,1.85122 3.33334,-0.7354 l 5.33333,-3.22188 -4.33333,4.99311 c -2.38334,2.7462 -4.33334,5.30276 -4.33334,5.68123 0,0.37847 1.95,-0.77158 4.33334,-2.55566 2.38333,-1.78408 6.25354,-4.21461 8.60045,-5.40119 z M 226.55276,136.66667 c 12.09868,-17.18276 16.11391,-23.66903 16.11391,-26.0307 0,-1.18518 -0.79883,-0.99299 -2.58264,0.62133 -1.42046,1.2855 -3.20806,1.95074 -3.97245,1.47833 -3.57228,-2.2078 -8.3059,3.30099 -13.68931,15.93104 -2.82847,6.6359 -3.12202,4.31861 -0.42226,-3.33333 2.43707,-6.90742 2.54115,-9.72645 0.33333,-9.02925 -0.91667,0.28947 -3.0236,4.38947 -4.68208,9.11111 -2.86585,8.15899 -3.06604,7.62119 -0.96114,-2.582 1.35088,-6.54816 -1.57676,-4.10688 -3.46548,2.88977 -1.48357,5.49579 -5.15349,27.74266 -5.20072,31.52649 -0.0422,3.38343 7.74379,-5.26568 18.52884,-20.58279 z m -13.11416,-0.11111 c 0.064,-1.55326 0.37992,-1.8692 0.80556,-0.80556 0.38516,0.9625 0.33779,2.1125 -0.10526,2.55556 -0.44306,0.44306 -0.75819,-0.34444 -0.7003,-1.75 z m 213.89126,-10.6839 c -3.15213,-8.64261 -6.07204,-12.53832 -9.3977,-12.53832 -1.69634,0 0.50825,5.46375 6.26275,15.52131 3.15412,5.51269 5.96509,9.33207 6.2466,8.48753 0.28151,-0.84454 -1.11873,-6.00627 -3.11165,-11.47052 z m 7.90175,7.79501 C 434.09949,127.30102 429.36855,116 427.83582,116 c -0.64303,0 -1.16914,0.24874 -1.16914,0.55275 0,1.36223 8.29902,22.11392 8.8438,22.11392 0.3357,0 0.21021,-2.25 -0.27887,-5 z m 15.91202,-22.31974 c 0.94109,-2.45244 -4.29114,-4.0173 -9.26128,-2.76987 -2.84341,0.71365 -3.16679,1.2086 -1.83674,2.81121 2.13827,2.57647 10.10487,2.54679 11.09802,-0.0413 z m -217.82631,-4.00944 c 10.88529,-2.82066 22.84277,-8.252426 35.40994,-16.085199 9.80385,-6.110475 11.83619,-9.365999 4.8577,-7.781354 -1.97172,0.44773 -11.38495,4.119981 -20.91829,8.160557 -18.52508,7.851608 -26.71178,9.583046 -45.66666,9.658216 l -11,0.0436 v 4.86641 4.86642 l 14.39444,-0.75937 c 7.91695,-0.41766 18.23224,-1.75385 22.92287,-2.96931 z m 206.20659,-0.18395 c 2.52647,-1.19888 5.39488,-3.74888 6.37425,-5.66666 1.9615,-3.840932 4.01872,-12.153544 3.00779,-12.153544 -0.3516,0 -2.67922,2.039946 -5.17248,4.533214 -2.49327,2.493267 -7.14029,5.314311 -10.3267,6.26898 -5.34998,1.6029 -6.62079,1.45115 -16.60013,-1.982202 -5.94364,-2.044888 -17.01551,-6.365931 -24.60416,-9.602318 -7.58864,-3.236387 -15.33163,-5.884341 -17.20665,-5.884341 -3.38009,0 -3.38752,0.02387 -0.87207,2.803412 3.47678,3.841791 18.14814,12.410318 28.34119,16.552129 18.03985,7.33024 29.17574,8.87217 37.05896,5.13133 z m -214.63954,-16.701865 6.96822,-6.881661 23.74038,-1.666863 c 13.95752,-0.979988 26.08151,-2.517457 29.42168,-3.731028 6.94202,-2.522211 15.17591,-8.099923 27.07337,-18.339754 l 9.02068,-7.763861 11.77899,5.459516 c 15.02013,6.961773 21.53915,9.272071 22.36997,7.927774 1.02651,-1.660935 -4.23867,-5.93294 -16.59098,-13.461412 -6.23334,-3.799084 -12.28058,-7.751991 -13.43832,-8.784238 -1.15775,-1.032247 -2.53295,-1.876813 -3.05601,-1.876813 -0.52305,0 -5.27581,3.769424 -10.56167,8.376497 -14.97716,13.053843 -23.81308,19.258633 -29.61067,20.793309 -2.93333,0.776481 -14.03333,2.052959 -24.66667,2.836618 -23.7279,1.748706 -28.96391,3.49579 -36.20162,12.079293 -3.02213,3.584067 -6.46309,6.775223 -7.64658,7.091458 -8.76392,2.341771 -9.49221,2.266096 -11.04775,-1.14794 -1.85646,-4.074484 -3.30011,-4.279134 -4.45769,-0.631917 -1.51806,4.782972 1.5526,6.602684 11.14164,6.602684 h 8.79481 z m 17.51577,0.347933 c 0.47223,-1.416687 -0.27355,-1.624736 -3.2263,-0.900039 -4.72255,1.159064 -7.80689,3.997429 -6.55138,6.028901 1.12217,1.815705 8.80641,-2.215047 9.77768,-5.128862 z m 185.64052,2.609668 c -2.1416,-4.001605 -14.36053,-14.337192 -20.39979,-17.255505 -4.4567,-2.153581 -10.25921,-3.022373 -27.64086,-4.138585 -26.43618,-1.697674 -30.52034,-2.571076 -44.21085,-9.454533 -11.96213,-6.014437 -12.47327,-4.551279 -1.83553,5.254247 10.61554,9.785062 15.33991,11.137172 42.71305,12.224424 24.5554,0.975332 29.00024,1.864638 35.99845,7.202433 12.72208,9.703606 18.51065,12.025548 15.37553,6.167519 z m 16.58616,-5.473767 c -0.4313,-0.697862 -2.54877,-1.268839 -4.7055,-1.268839 -3.55526,0 -3.92131,0.414881 -3.92131,4.444444 0,2.444445 0.44397,4.888407 0.98659,5.431027 1.30544,1.305443 8.65169,-6.970035 7.64022,-8.606632 z M 209.8202,89.236563 c 4.73212,-3.722289 4.42908,-5.313099 -0.73026,-3.833421 -5.08902,1.459513 -7.04177,3.18408 -5.8284,5.147351 1.28248,2.075104 2.58088,1.81499 6.55866,-1.31393 z M 410.73973,62.809851 c -3.789,-7.427053 -17.37254,-21.643067 -26.41545,-27.645412 -15.70766,-10.426149 -40.4406,-17.031046 -52.05946,-13.90241 -4.94104,1.330483 -5.59814,1.961065 -5.59814,5.372203 0,3.69299 0.22225,3.835799 5,3.212786 l 5,-0.651995 -4.42737,2.044329 c -4.62312,2.134717 -4.66831,4.760649 -0.0819,4.760649 1.46667,0 2.34317,0.523428 1.94779,1.163173 -0.88036,1.42444 6.8988,2.80238 15.93245,2.822153 9.0903,0.0199 22.87884,6.753153 34.74863,16.968549 9.14314,7.868783 15.21375,11.95892 15.21375,10.250417 0,-0.489244 -1.29355,-3.060354 -2.87457,-5.713579 -2.7928,-4.686822 -2.67989,-4.636695 3.96928,1.762236 6.98222,6.719446 9.66672,7.441088 6.92383,1.861247 -1.4729,-2.996313 -1.42764,-2.988018 1.19566,0.219139 1.49958,1.833333 2.78722,3.933333 2.86142,4.666666 0.0742,0.733334 0.4226,0.628154 0.77422,-0.233732 0.35163,-0.861887 -0.59793,-3.992275 -2.11012,-6.956419 z m -174.454,2.931574 c 2.34539,-2.122548 2.4435,-2.122548 1.629,0 -1.33853,3.488158 2.08258,2.749147 6.51847,-1.40809 3.47503,-3.256744 3.73881,-3.331275 2.35938,-0.666666 -2.8897,5.581952 1.30867,3.33976 10.67141,-5.699202 4.95594,-4.784561 11.76796,-9.918824 15.13783,-11.409475 8.16816,-3.613167 22.22531,-6.496614 32.06486,-6.577244 7.32683,-0.06004 7.78221,-0.230278 5.41182,-2.023151 -2.44593,-1.850015 -2.34897,-1.957596 1.76444,-1.957596 3.42522,0 4.25821,-0.49715 3.90958,-2.333333 -0.31413,-1.654437 -2.18529,-2.566023 -6.4311,-3.133075 l -5.98808,-0.799742 6.92131,-0.200258 c 3.80672,-0.110142 7.28447,-0.787859 7.72833,-1.506036 1.46129,-2.364421 -1.91293,-6.509057 -5.64912,-6.938944 -7.4082,-0.852387 -25.32308,1.486738 -32.79362,4.281823 -11.01024,4.119459 -26.27461,14.78122 -34.69361,24.23257 -10.32016,11.585637 -16.58953,23.404235 -8.5609,16.138419 z m 37.63112,-5.65803 c 13.93998,-7.627371 15.53407,-10.765139 2.43339,-4.789818 -8.92915,4.072655 -17.68357,9.847787 -17.68357,11.665538 0,1.546954 -0.81433,1.914104 15.25018,-6.87572 z m -10.36113,-0.02319 c 4.80863,-2.900224 14.37577,-7.149703 21.2603,-9.443286 6.88453,-2.293582 12.51732,-4.720672 12.51732,-5.393532 0,-0.67286 -2.88174,-1.223382 -6.40386,-1.223382 -8.43411,0 -25.59465,8.273234 -32.86674,15.84531 -2.89882,3.018413 -4.81596,5.488025 -4.2603,5.488025 0.55567,0 4.94464,-2.372911 9.75328,-5.273135 z m 31.19036,-1.333009 c 3.98966,-3.633379 6.43432,-6.633379 5.43257,-6.666667 -2.38684,-0.07931 -14.35027,8.726258 -15.3322,11.28512 -1.48863,3.879316 2.72935,1.911508 9.89963,-4.618453 z m 92.01846,4.122336 C 381.13043,52.322094 355.6937,40.446587 344.69268,43.207667 c -3.85149,0.966664 -3.33317,3.459001 0.71935,3.459001 1.42339,0 2.58798,0.548042 2.58798,1.21787 0,1.074805 26.97593,16.115464 28.90363,16.115464 2.05868,0 -3.61596,-4.755463 -9.92029,-8.313404 -3.9076,-2.205311 -6.83317,-4.28121 -6.50127,-4.613108 0.89325,-0.893251 8.5391,3.270875 16.73499,9.114298 7.99799,5.702331 11.73185,6.743295 9.54747,2.66174 z"
       id="path1" />
  </g>
</svg>
