<?xml version="1.0" encoding="UTF-8"?>
<svg fill="#fff" stroke-linecap="square" stroke-miterlimit="10" version="1.1" viewBox="0 0 1024 1024" xmlns="http://www.w3.org/2000/svg">  <defs>
    <linearGradient id="elephantGradient" x1="0%" y1="0%" x2="100%" y2="100%">
      <stop offset="10%" stop-color="#ffffff" />
      <stop offset="90%" stop-color="#A58FB5" />
    </linearGradient>
    <linearGradient id="logoGradient" x1="0%" y1="0%" x2="100%" y2="100%">
      <stop offset="10%" stop-color="#ffffff" />
      <stop offset="90%" stop-color="#A58FB5" />
    </linearGradient>
    <style>
      .elephant-body { fill: url(#elephantGradient); stroke: #A58FB5; }
      .logo-triangle { fill: none; stroke: url(#logoGradient); stroke-width: 10; }
    </style>
  </defs>
  
  <!-- 大象外形 -->
  <g transform="scale(-1,1) translate(-1024,0)" class="elephant-body">
    <path d="M974.848 813.056h-143.9744l-35.0208-281.3952c-0.6144-5.5296 3.2768-10.6496 8.8064-11.4688 5.5296-0.6144 10.6496 3.2768 11.4688 8.8064l32.768 263.5776H954.368V354.5088c0-97.4848-79.4624-176.9472-176.9472-176.9472L446.464 178.176c-5.7344 0-10.24-4.5056-10.24-10.24s4.5056-10.24 10.24-10.24l330.9568-0.6144c108.9536 0 197.4272 88.4736 197.4272 197.4272V813.056zM486.6048 813.056H354.304l-35.2256-247.1936c-0.8192-5.5296 3.072-10.8544 8.6016-11.6736 5.5296-0.8192 10.8544 3.072 11.6736 8.6016l32.768 229.5808H466.944l10.8544-251.0848c0.2048-5.7344 4.9152-10.0352 10.6496-9.8304 5.7344 0.2048 10.0352 5.12 9.8304 10.6496L486.6048 813.056z"/>
    <path d="M652.288 643.6864c-95.6416 0-162.6112-15.36-166.7072-16.384-5.5296-1.2288-9.0112-6.7584-7.5776-12.288s6.7584-8.8064 12.288-7.5776c1.4336 0.4096 152.1664 34.816 324.1984 0 5.5296-1.024 10.8544 2.4576 12.0832 7.9872 1.2288 5.5296-2.4576 10.8544-7.9872 12.0832-60.0064 12.288-116.9408 16.1792-166.2976 16.1792z"/>
    <path d="M802.816 751.616h-0.2048l-56.32-1.2288-22.9376-111.616c-1.2288-5.5296 2.4576-10.8544 7.9872-12.0832 5.5296-1.2288 10.8544 2.4576 12.0832 7.9872l19.6608 95.6416 39.936 0.8192c5.7344 0.2048 10.24 4.7104 10.0352 10.4448-0.2048 5.5296-4.7104 10.0352-10.24 10.0352z"/>
    <path d="M164.6592 331.9808m-22.7328 0a22.7328 22.7328 0 1 0 45.4656 0 22.7328 22.7328 0 1 0-45.4656 0Z" fill="#A58FB5"/>
    <path d="M325.632 745.472l-73.3184-0.4096-33.5872-228.1472c-0.2048-1.2288-0.6144-2.2528-1.6384-2.8672-0.6144-0.6144-1.4336-0.6144-2.2528-0.4096-14.9504 3.4816-33.792 2.048-49.7664-3.2768C122.88 641.024 136.8064 671.1296 142.336 677.2736c1.6384 1.8432 3.2768 2.2528 3.2768 2.2528l8.8064-1.8432 17.2032 52.0192-9.216 3.4816c-30.72 11.4688-56.7296 11.0592-77.4144-1.4336-32.5632-19.6608-38.2976-61.8496-38.5024-63.6928V416.9728c0-149.504 121.6512-271.1552 271.1552-271.1552 3.2768 0 78.2336 0.6144 117.3504 49.7664 22.1184 27.648 27.8528 64.9216 17.408 110.3872l-0.4096 1.2288c-28.672 78.6432-88.4736 161.792-147.456 168.96-19.8656 2.4576-48.9472-3.072-74.9568-41.984-3.072-4.7104-1.8432-11.0592 2.8672-14.1312s11.0592-1.8432 14.1312 2.8672c16.1792 24.3712 34.816 35.4304 55.5008 32.9728 48.128-5.7344 104.0384-83.1488 130.4576-155.0336 8.8064-38.7072 4.3008-69.8368-13.5168-92.3648-32.9728-41.5744-100.5568-41.984-101.376-41.984-138.24 0-250.6752 112.4352-250.6752 250.6752v249.0368c0.6144 4.3008 6.3488 34.6112 28.8768 48.128 13.1072 7.7824 29.9008 8.8064 50.176 2.8672l-5.9392-18.0224c-4.096-1.024-8.8064-3.4816-13.1072-8.3968-20.8896-23.7568-13.5168-90.112 22.3232-197.4272l3.6864-11.264 10.6496 5.3248c13.312 6.7584 32.9728 9.216 46.6944 6.144 6.5536-1.4336 13.312-0.2048 18.8416 3.8912 5.5296 4.096 9.216 10.24 10.0352 17.2032l30.9248 210.1248 55.5008 0.2048c5.7344 0 10.24 4.7104 10.24 10.24 0 5.7344-4.7104 10.24-10.24 10.24z"/>
  </g>
  
  <!-- Three.js logo 放在大象肚子中央 - 调整后的尺寸和位置 -->
  <g transform="translate(142, 162) scale(2.2)" fill-rule="evenodd" stroke-linecap="butt" stroke-linejoin="round">
    <!-- 主三角形 -->
    <path d="m63.02 200.61-43.213-174.94 173.23 49.874z" class="logo-triangle"/>
    
    <!-- 内部三角形 -->
    <path d="m106.39 50.612 21.591 87.496-86.567-24.945z" class="logo-triangle"/>
    <path d="m84.91 125.03-10.724-43.465 43.008 12.346z" class="logo-triangle"/>
    <path d="m63.458 38.153 10.724 43.465-43.008-12.346z" class="logo-triangle"/>
    <path d="m149.47 62.93 10.724 43.465-43.008-12.346z" class="logo-triangle"/>
    <path d="m84.915 125.06 10.724 43.465-43.008-12.346z" class="logo-triangle"/>
  </g>
</svg>
