# Blender v2.82 (sub 7) OBJ File: '4Stories2.blend'
# www.blender.org
mtllib 4Stories2.mtl
o 4StorySchorn_Cube.002
v 1.569730 2.801079 0.663402
v 1.569730 4.543079 0.663402
v 1.569730 2.801079 0.463402
v 1.569730 4.543079 0.463402
v 1.769730 2.801079 0.663402
v 1.769730 4.543079 0.663402
v 1.769730 2.801079 0.463402
v 1.769730 4.543079 0.463402
v 2.000000 3.000000 -1.000000
v 2.000000 0.000000 -1.000000
v 2.000000 3.000000 1.000000
v 2.000000 0.000000 1.000000
v -2.000000 3.000000 -1.000000
v -2.000000 0.000000 -1.000000
v -2.000000 3.000000 1.000000
v -2.000000 0.000000 1.000000
v 1.800000 3.000000 0.810000
v -1.800001 3.000000 0.810000
v 1.800000 3.000000 -0.810000
v -1.800001 3.000000 -0.810000
v 1.800000 2.816530 0.810000
v -1.800001 2.816530 0.810000
v 1.800000 2.816530 -0.810000
v -1.800001 2.816530 -0.810000
v 0.476588 2.809686 0.686575
v 0.476588 3.317468 0.686575
v 0.476588 2.809686 -0.113425
v 0.476588 3.317468 -0.113425
v 1.587876 2.809686 0.686575
v 1.587876 3.609686 0.686575
v 1.587876 2.809686 -0.113425
v 1.587876 3.609686 -0.113425
v 0.921103 2.809686 -0.113425
v 0.921103 3.609686 -0.113425
v 0.921103 2.809686 0.686575
v 0.921103 3.609686 0.686575
vt 0.977435 0.000085
vt 0.977435 0.999915
vt 0.937585 0.999915
vt 0.937585 0.000085
vt 0.977435 0.000085
vt 0.977435 0.999915
vt 0.937585 0.999915
vt 0.937585 0.000085
vt 0.999971 0.000143
vt 0.999972 0.999972
vt 0.938183 0.999972
vt 0.938183 0.000142
vt 0.977435 0.000085
vt 0.977435 0.999915
vt 0.937585 0.999915
vt 0.937585 0.000085
vt 0.627456 0.475875
vt 0.723836 0.475875
vt 0.723836 0.695434
vt 0.627456 0.695434
vt 0.866310 0.768869
vt 0.831375 0.768869
vt 0.831375 0.738368
vt 0.866310 0.738368
vt 0.758714 0.997676
vt 0.210525 0.997676
vt 0.262603 0.922321
vt 0.706636 0.922321
vt 0.969872 0.000098
vt 0.969872 0.999901
vt 0.000098 0.999901
vt 0.000098 0.000099
vt 0.984985 0.000070
vt 0.984985 0.999930
vt 0.587825 0.999930
vt 0.587825 0.000070
vt 0.125000 0.500000
vt 0.375000 0.500000
vt 0.375000 0.750000
vt 0.125000 0.750000
vt 0.984985 0.000070
vt 0.984985 0.999930
vt 0.587825 0.999930
vt 0.587825 0.000070
vt 0.964966 0.002533
vt 0.964966 0.997467
vt -0.000085 0.997467
vt -0.000085 0.002533
vt 0.755846 0.927405
vt 0.028400 0.927405
vt 0.028400 0.876443
vt 0.755846 0.876443
vt 0.682953 0.997089
vt 0.169746 0.997089
vt 0.218500 0.926543
vt 0.634198 0.926543
vt 0.978987 0.994446
vt 0.021702 0.994446
vt 0.069566 0.931941
vt 0.931122 0.931940
vt 0.973157 0.991654
vt 0.027512 0.991654
vt 0.074794 0.929908
vt 0.925874 0.929907
vt 0.414964 0.929493
vt 0.121306 0.929493
vt 0.121306 0.883776
vt 0.414964 0.883776
vt 0.602021 0.928767
vt 0.267596 0.928767
vt 0.267596 0.876704
vt 0.602021 0.876704
vt 0.728015 0.928363
vt 0.000569 0.928363
vt 0.000569 0.877401
vt 0.728015 0.877400
vt 0.728672 0.869239
vt 0.728672 0.700528
vt 0.817957 0.700528
vt 0.817957 0.869239
vt 0.731783 0.694625
vt 0.731783 0.912287
vt 0.599809 0.912287
vt 0.599809 0.694625
vt 0.915686 0.644453
vt 0.915686 0.919377
vt 0.770191 0.919377
vt 0.770191 0.644453
vt 0.732997 0.690776
vt 0.732997 0.908477
vt 0.820995 0.828957
vt 0.820995 0.690776
vt 0.225000 0.500000
vt 0.375000 0.500000
vt 0.375000 0.750000
vt 0.225000 0.750000
vt 0.768538 0.999357
vt 0.768538 0.921631
vt 0.898503 0.921631
vt 0.898503 0.999357
vt 0.707594 1.000005
vt 0.707594 0.920588
vt 0.843387 0.920588
vt 0.843387 1.000005
vt 0.125000 0.500000
vt 0.125000 0.750000
vt 0.601000 0.690776
vt 0.601000 0.908477
vt 0.819765 0.694625
vt 0.819765 0.832781
vt -1.562500 -1.687500
vt 3.062499 -1.687500
vt 3.062499 2.937500
vt -1.562500 2.937500
vn -1.0000 0.0000 0.0000
vn 0.0000 0.0000 -1.0000
vn 1.0000 0.0000 0.0000
vn 0.0000 0.0000 1.0000
vn 0.0000 -1.0000 0.0000
vn 0.0000 1.0000 0.0000
vn -0.5493 0.8356 0.0000
usemtl BrickBuildingWall01
s off
f 1/1/1 2/2/1 4/3/1 3/4/1
f 3/5/2 4/6/2 8/7/2 7/8/2
f 7/9/3 8/10/3 6/11/3 5/12/3
f 5/13/4 6/14/4 2/15/4 1/16/4
f 3/17/5 7/18/5 5/19/5 1/20/5
f 8/21/6 4/22/6 2/23/6 6/24/6
f 13/25/6 15/26/6 18/27/6 20/28/6
f 12/29/4 11/30/4 15/31/4 16/32/4
f 16/33/1 15/34/1 13/35/1 14/36/1
f 14/37/5 10/38/5 12/39/5 16/40/5
f 10/41/3 9/42/3 11/43/3 12/44/3
f 14/45/2 13/46/2 9/47/2 10/48/2
f 19/49/4 20/50/4 24/51/4 23/52/4
f 11/53/6 9/54/6 19/55/6 17/56/6
f 9/57/6 13/58/6 20/59/6 19/60/6
f 15/61/6 11/62/6 17/63/6 18/64/6
f 17/65/1 19/66/1 23/67/1 21/68/1
f 20/69/3 18/70/3 22/71/3 24/72/3
f 18/73/2 17/74/2 21/75/2 22/76/2
f 25/77/1 26/78/1 28/79/1 27/80/1
f 33/81/2 34/82/2 32/83/2 31/84/2
f 31/85/3 32/86/3 30/87/3 29/88/3
f 35/89/4 36/90/4 26/91/4 25/92/4
f 33/93/5 31/94/5 29/95/5 35/96/5
f 34/97/7 28/98/7 26/99/7 36/100/7
f 32/101/6 34/102/6 36/103/6 30/104/6
f 27/105/5 33/93/5 35/96/5 25/106/5
f 29/107/4 30/108/4 36/90/4 35/89/4
f 27/109/2 28/110/2 34/82/2 33/81/2
usemtl FloorRoofTop
f 23/111/6 24/112/6 22/113/6 21/114/6
